<?xml version="1.0" standalone="no"?><!DOCTYPE svg PUBLIC "-//W3C//DTD SVG 1.1//EN" "http://www.w3.org/Graphics/SVG/1.1/DTD/svg11.dtd"><svg t="1626004259711" class="icon" viewBox="0 0 1024 1024" version="1.1" xmlns="http://www.w3.org/2000/svg" p-id="9817" xmlns:xlink="http://www.w3.org/1999/xlink" width="200" height="200"><defs><style type="text/css"></style></defs><path d="M138.24 158.72v706.56c0 11.264 9.216 20.48 20.48 20.48h299.52v-0.512c10.24-1.024 17.92-9.728 17.92-19.968s-7.68-18.944-17.92-19.968v-0.512H199.68c-11.264 0-20.48-9.216-20.48-20.48V199.68c0-11.264 9.216-20.48 20.48-20.48h624.64c11.264 0 20.48 9.216 20.48 20.48v258.56h0.512c1.024 10.24 9.728 17.92 19.968 17.92s18.944-7.68 19.968-17.92h0.512V158.72c0-11.264-9.216-20.48-20.48-20.48H158.72c-11.264 0-20.48 9.216-20.48 20.48z" p-id="9818" fill="#cdcdcd"></path><path d="M701.44 307.2H322.56c-11.264 0-20.48-9.216-20.48-20.48s9.216-20.48 20.48-20.48h378.88c11.264 0 20.48 9.216 20.48 20.48s-9.216 20.48-20.48 20.48zM865.792 706.048H506.368c-10.752 0-19.968-8.704-19.968-19.968 0-10.752 8.704-19.968 19.968-19.968h359.936c10.752 0 19.968 8.704 19.968 19.968-0.512 10.752-9.216 19.968-20.48 19.968z" p-id="9819" fill="#cdcdcd"></path><path d="M666.112 865.792V506.368c0-10.752 8.704-19.968 19.968-19.968 10.752 0 19.968 8.704 19.968 19.968v359.936c0 10.752-8.704 19.968-19.968 19.968-10.752-0.512-19.968-9.216-19.968-20.48z" p-id="9820" fill="#cdcdcd"></path></svg>