<?xml version="1.0" standalone="no"?><!DOCTYPE svg PUBLIC "-//W3C//DTD SVG 1.1//EN" "http://www.w3.org/Graphics/SVG/1.1/DTD/svg11.dtd"><svg t="1626003486811" class="icon" viewBox="0 0 1024 1024" version="1.1" xmlns="http://www.w3.org/2000/svg" p-id="3073" data-spm-anchor-id="a313x.7781069.0.i4" xmlns:xlink="http://www.w3.org/1999/xlink" width="200" height="200"><defs><style type="text/css"></style></defs><path d="M781.107 971.06H249.293c-90.317 0-163.84-73.524-163.84-163.84V402.687c0-90.317 73.523-163.84 163.84-163.84h531.814c90.317 0 163.84 73.523 163.84 163.84v404.531c0 90.317-73.472 163.84-163.84 163.84zM249.293 300.287c-56.474 0-102.4 45.926-102.4 102.4v404.531c0 56.474 45.926 102.4 102.4 102.4h531.814c56.474 0 102.4-45.926 102.4-102.4V402.688c0-56.474-45.926-102.4-102.4-102.4H249.293z" fill="#dbdbdb" p-id="3074"></path><path d="M691.968 457.882c-16.947 0-30.72-13.773-30.72-30.72v-164.66c0-81.664-66.406-148.07-148.07-148.07s-148.07 66.406-148.07 148.07v164.66c0 16.947-13.774 30.72-30.72 30.72s-30.72-13.773-30.72-30.72v-164.66c0-115.558 94.002-209.51 209.51-209.51s209.51 94.003 209.51 209.51v164.66c0 16.947-13.722 30.72-30.72 30.72z" fill="#dbdbdb" p-id="3075"></path></svg>